#N canvas 0 46 749 720 10;
#X obj 161 230 bfin~ 0 0 0;
#X obj 208 200 adc~ 1 2 3 4;
#X obj 160 277 dac~ 1 2 3 4;
#X floatatom 234 76 5 0 0 0 - - -, f 5;
#X msg 36 161 describe;
#X obj 97 90 tgl 15 0 empty empty empty 17 7 0 10 -262144 -1 -1 0 1
;
#X obj 119 127 list prepend;
#X msg 110 161 param \$1 \$2;
#X floatatom 123 65 5 0 0 0 - - -, f 5;
#X msg 216 161 describe \$1;
#X obj 231 20 bng 15 250 50 0 empty empty empty 17 7 0 10 -262144 -1
-1;
#X connect 0 0 2 0;
#X connect 0 1 2 1;
#X connect 0 2 2 2;
#X connect 0 3 2 3;
#X connect 1 0 0 0;
#X connect 1 1 0 1;
#X connect 1 2 0 2;
#X connect 1 3 0 3;
#X connect 3 0 6 1;
#X connect 3 0 9 0;
#X connect 4 0 0 0;
#X connect 5 0 6 0;
#X connect 6 0 7 0;
#X connect 7 0 0 0;
#X connect 8 0 6 0;
#X connect 9 0 0 0;
#X connect 10 0 3 0;
