#N canvas 0 46 1364 720 10;
#X obj 286 261 bfin~ 0 0 0;
#X obj 278 164 adc~ 1 2 3 4;
#X obj 314 446 dac~ 1 2 3 4;
#X msg 195 188 list;
#X msg 526 191 param 18 1;
#X msg 433 179 param 18 0;
#X connect 0 0 2 0;
#X connect 0 0 2 2;
#X connect 0 1 2 1;
#X connect 0 1 2 3;
#X connect 3 0 0 0;
#X connect 4 0 0 0;
#X connect 5 0 0 0;
