#N canvas 0 29 1918 369 10;
#X msg 854 279 trig 1;
#X obj 858 469 aleph_op_mul;
#X floatatom 880 567 5 0 0 0 - - -, f 5;
#X msg 795 272 a 16;
#X msg 750 274 b 65;
#X connect 0 0 1 0;
#X connect 1 0 2 0;
#X connect 3 0 1 0;
#X connect 4 0 1 0;
