#N canvas 0 46 1364 720 10;
#X obj 37 37 bees_op;
#X obj 277 119 BEES_MP;
#X obj 373 120 BEES_GRID;
#X msg 184 418 1;
#X msg 270 63 1;
#X msg 387 56 1;
#X msg 331 68 1;
#X floatatom 368 157 5 0 0 0 - - -, f 5;
#X floatatom 415 156 5 0 0 0 - - -, f 5;
#X floatatom 469 163 5 0 0 0 - - -, f 5;
#X msg 768 259 1;
#X floatatom 852 366 5 0 0 0 - - -, f 5;
#X floatatom 901 364 5 0 0 0 - - -, f 5;
#X floatatom 946 359 5 0 0 0 - - -, f 5;
#X obj 849 296 BEES_GRIDRAW;
#X msg 431 48 1;
#X msg 420 11 0;
#X msg 233 420 1;
#X obj 80 234 BEES_STEP;
#X msg 87 151 1;
#X msg 141 152 1;
#X obj 215 389 BEES_METRO;
#X msg 202 332 1;
#X obj 310 231 vsl 15 128 0 127 0 0 empty empty empty 0 -9 0 10 -262144
-1 -1 0 1;
#X msg 135 337 0;
#X obj 206 473 BEES_WW 0 0 0 0;
#X obj 278 534 print tr1;
#X obj 277 558 print tr2;
#X obj 272 584 print tr3;
#X obj 264 618 print tr4;
#X obj 378 521 print cva;
#X obj 385 548 print cvb;
#X obj 449 495 print pos;
#X obj 526 494 BEES_KRIA;
#X msg 557 384 1;
#X msg 602 393 1;
#X obj 468 601 print tr1;
#X obj 611 600 print tr2;
#X obj 601 537 print cv2;
#X obj 540 601 print cv1;
#X obj 672 395 BEES_HARRY;
#X obj 685 429 / 256;
#X floatatom 694 474 5 0 0 0 - - -, f 5;
#X obj 966 267 BEES_ITER;
#X obj 823 234 BEES_ITER;
#X msg 806 11 2;
#X msg 844 10 3;
#X msg 881 12 4;
#X msg 921 12 5;
#X msg 954 9 6;
#X msg 991 10 7;
#X msg 1025 13 8;
#X msg 773 12 1;
#X obj 818 110 BEES_Y4;
#X obj 770 154 BEES_MEM0D;
#X msg 777 116 0;
#X obj 891 167 BEES_MEM0D;
#X msg 910 65 8;
#X obj 849 194 BEES_Y;
#X obj 681 163 BEES_MEM0D;
#X obj 761 67 BEES_Y4, f 8;
#X obj 989 125 BEES_ITER;
#X msg 686 126 8;
#X obj 910 192 BEES_Y;
#X obj 985 93 BEES_MEM0D;
#X msg 971 56 4;
#X obj 661 15 loadbang;
#X connect 2 0 7 0;
#X connect 2 1 8 0;
#X connect 2 2 9 0;
#X connect 3 0 25 1;
#X connect 4 0 1 1;
#X connect 5 0 2 1;
#X connect 6 0 1 3;
#X connect 10 0 14 1;
#X connect 14 0 11 0;
#X connect 14 0 40 1;
#X connect 14 1 12 0;
#X connect 14 1 40 2;
#X connect 14 2 13 0;
#X connect 14 2 40 3;
#X connect 15 0 2 2;
#X connect 16 0 2 2;
#X connect 17 0 25 2;
#X connect 19 0 18 1;
#X connect 20 0 18 3;
#X connect 21 0 25 2;
#X connect 21 0 33 2;
#X connect 22 0 21 1;
#X connect 23 0 21 2;
#X connect 24 0 21 1;
#X connect 25 0 26 0;
#X connect 25 1 27 0;
#X connect 25 2 28 0;
#X connect 25 3 29 0;
#X connect 25 4 30 0;
#X connect 25 5 31 0;
#X connect 25 6 32 0;
#X connect 33 0 36 0;
#X connect 33 1 39 0;
#X connect 33 2 37 0;
#X connect 33 3 38 0;
#X connect 34 0 33 1;
#X connect 35 0 33 2;
#X connect 40 0 41 0;
#X connect 41 0 42 0;
#X connect 43 0 14 3;
#X connect 43 1 14 4;
#X connect 44 0 14 2;
#X connect 44 1 43 2;
#X connect 45 0 60 1;
#X connect 46 0 60 1;
#X connect 47 0 60 1;
#X connect 48 0 60 1;
#X connect 49 0 60 1;
#X connect 50 0 60 1;
#X connect 51 0 60 1;
#X connect 52 0 60 1;
#X connect 53 0 56 2;
#X connect 53 1 54 2;
#X connect 53 2 58 1;
#X connect 53 3 59 2;
#X connect 54 0 44 2;
#X connect 55 0 54 1;
#X connect 56 0 58 1;
#X connect 57 0 56 1;
#X connect 58 0 44 1;
#X connect 58 1 43 1;
#X connect 59 0 44 2;
#X connect 60 0 40 4;
#X connect 60 1 53 1;
#X connect 60 2 61 1;
#X connect 60 3 64 2;
#X connect 61 0 63 1;
#X connect 61 1 14 4;
#X connect 62 0 59 1;
#X connect 63 0 14 2;
#X connect 63 1 14 3;
#X connect 64 0 61 2;
#X connect 65 0 64 1;
#X connect 66 0 62 0;
#X connect 66 0 55 0;
#X connect 66 0 65 0;
#X connect 66 0 57 0;
