#N canvas 0 29 1918 1169 10;
#X obj 37 37 bees_op;
#X obj 277 119 BEES_MP;
#X obj 373 120 BEES_GRID;
#X msg 184 418 1;
#X msg 270 63 1;
#X msg 387 56 1;
#X msg 331 68 1;
#X floatatom 368 157 5 0 0 0 - - -, f 5;
#X floatatom 415 156 5 0 0 0 - - -, f 5;
#X floatatom 461 154 5 0 0 0 - - -, f 5;
#X msg 506 64 1;
#X floatatom 524 185 5 0 0 0 - - -, f 5;
#X floatatom 574 184 5 0 0 0 - - -, f 5;
#X floatatom 618 178 5 0 0 0 - - -, f 5;
#X obj 528 128 BEES_GRIDRAW;
#X floatatom 537 63 5 0 0 0 - - -, f 5;
#X floatatom 577 58 5 0 0 0 - - -, f 5;
#X floatatom 630 67 5 0 0 0 - - -, f 5;
#X msg 431 48 1;
#X msg 420 11 0;
#X msg 233 420 1;
#X obj 727 145 BEES_STEP;
#X msg 734 62 1;
#X msg 788 63 1;
#X obj 215 389 BEES_METRO;
#X msg 202 332 1;
#X obj 310 231 vsl 15 128 0 127 0 0 empty empty empty 0 -9 0 10 -262144
-1 -1 11500 1;
#X msg 135 337 0;
#X obj 206 473 BEES_WW 0 0 0 0;
#X obj 278 534 print tr1;
#X obj 277 558 print tr2;
#X obj 272 584 print tr3;
#X obj 264 618 print tr4;
#X obj 378 521 print cva;
#X obj 385 548 print cvb;
#X obj 449 495 print pos;
#X connect 2 0 7 0;
#X connect 2 1 8 0;
#X connect 2 2 9 0;
#X connect 3 0 28 1;
#X connect 4 0 1 1;
#X connect 5 0 2 1;
#X connect 6 0 1 3;
#X connect 10 0 14 1;
#X connect 14 0 11 0;
#X connect 14 1 12 0;
#X connect 14 2 13 0;
#X connect 15 0 14 2;
#X connect 16 0 14 3;
#X connect 17 0 14 4;
#X connect 18 0 2 2;
#X connect 19 0 2 2;
#X connect 20 0 28 2;
#X connect 22 0 21 1;
#X connect 23 0 21 3;
#X connect 24 0 28 2;
#X connect 25 0 24 1;
#X connect 26 0 24 2;
#X connect 27 0 24 1;
#X connect 28 0 29 0;
#X connect 28 1 30 0;
#X connect 28 2 31 0;
#X connect 28 3 32 0;
#X connect 28 4 33 0;
#X connect 28 5 34 0;
#X connect 28 6 35 0;
