#N canvas 0 47 1364 719 10;
#X obj 37 37 bees_op;
#X obj 277 119 BEES_MP;
#X obj 373 120 BEES_GRID;
#X msg 184 418 1;
#X msg 270 63 1;
#X msg 387 56 1;
#X msg 331 68 1;
#X floatatom 368 157 5 0 0 0 - - -, f 5;
#X floatatom 415 156 5 0 0 0 - - -, f 5;
#X floatatom 469 163 5 0 0 0 - - -, f 5;
#X msg 768 259 1;
#X floatatom 1006 369 5 0 0 0 - - -, f 5;
#X floatatom 1006 347 5 0 0 0 - - -, f 5;
#X floatatom 1005 326 5 0 0 0 - - -, f 5;
#X obj 849 296 BEES_GRIDRAW;
#X msg 431 48 1;
#X msg 420 11 0;
#X msg 233 420 1;
#X obj 80 234 BEES_STEP;
#X msg 87 151 1;
#X msg 141 152 1;
#X obj 215 389 BEES_METRO;
#X obj 310 231 vsl 15 128 0 127 0 0 empty empty empty 0 -9 0 10 -262144
-1 -1 0 1;
#X obj 206 473 BEES_WW 0 0 0 0;
#X obj 278 534 print tr1;
#X obj 277 558 print tr2;
#X obj 272 584 print tr3;
#X obj 264 618 print tr4;
#X obj 378 521 print cva;
#X obj 385 548 print cvb;
#X obj 449 495 print pos;
#X obj 526 494 BEES_KRIA;
#X msg 557 384 1;
#X msg 602 393 1;
#X obj 468 601 print tr1;
#X obj 611 600 print tr2;
#X obj 601 537 print cv2;
#X obj 540 601 print cv1;
#X obj 672 395 BEES_HARRY;
#X obj 685 429 / 256;
#X floatatom 694 474 5 0 0 0 - - -, f 5;
#X obj 966 267 BEES_ITER;
#X obj 823 234 BEES_ITER;
#X msg 806 11 2;
#X msg 844 10 3;
#X msg 881 12 4;
#X msg 921 12 5;
#X msg 954 9 6;
#X msg 991 10 7;
#X msg 1025 13 8;
#X msg 773 12 1;
#X obj 818 110 BEES_Y4;
#X obj 770 154 BEES_MEM0D;
#X msg 777 116 0;
#X obj 891 167 BEES_MEM0D;
#X msg 910 65 8;
#X obj 849 194 BEES_Y;
#X obj 681 163 BEES_MEM0D;
#X obj 761 67 BEES_Y4, f 8;
#X obj 989 125 BEES_ITER;
#X msg 686 126 8;
#X obj 910 192 BEES_Y;
#X obj 985 93 BEES_MEM0D;
#X msg 971 56 4;
#X obj 661 15 loadbang;
#X obj 874 536 BEES_POLY;
#X floatatom 867 468 5 0 0 0 - - -, f 5;
#X floatatom 855 580 5 0 0 0 - - -, f 5;
#X floatatom 904 581 5 0 0 0 - - -, f 5;
#X floatatom 954 578 5 0 0 0 - - -, f 5;
#X obj 848 415 BEES_ADD;
#X obj 866 379 BEES_MUL;
#X msg 898 346 5;
#X obj 204 326 tgl 15 0 empty empty empty 17 7 0 10 -262144 -1 -1 0
1;
#X obj 610 908 BEES_POLY;
#X floatatom 591 952 5 0 0 0 - - -, f 5;
#X floatatom 640 953 5 0 0 0 - - -, f 5;
#X floatatom 690 950 5 0 0 0 - - -, f 5;
#X obj 549 711 tgl 15 0 empty empty empty 17 7 0 10 -262144 -1 -1 0
1;
#X obj 597 710 tgl 15 0 empty empty empty 17 7 0 10 -262144 -1 -1 0
1;
#X obj 668 710 tgl 15 0 empty empty empty 17 7 0 10 -262144 -1 -1 0
1;
#X msg 563 782 0;
#X msg 621 781 1;
#X msg 682 783 2;
#X obj 534 751 t f f;
#X obj 591 750 t f f;
#X obj 656 750 t f f;
#X obj 696 839 tgl 15 0 empty empty empty 17 7 0 10 -262144 -1 -1 0
1;
#X obj 948 476 tgl 15 0 empty empty empty 17 7 0 10 -262144 -1 -1 0
1;
#X obj 106 604 BEES_RAND;
#X msg 79 485 0;
#X msg 117 489 16;
#X floatatom 118 685 5 0 0 0 - - -, f 5;
#X msg 185 519 1;
#X msg 1183 198 1000;
#X msg 1234 198 1;
#X msg 1272 211 1;
#X msg 1273 189 2;
#X msg 1275 164 4;
#X msg 1274 133 8;
#X obj 1170 324 bng 15 250 50 0 empty empty empty 17 7 0 10 -262144
-1 -1;
#X obj 1224 322 bng 15 250 50 0 empty empty empty 17 7 0 10 -262144
-1 -1;
#X floatatom 1095 383 5 0 0 0 - - -, f 5;
#X floatatom 1109 319 5 0 0 0 - - -, f 5;
#X floatatom 1187 392 5 0 0 0 - - -, f 5;
#X floatatom 1229 391 5 0 0 0 - - -, f 5;
#X floatatom 1272 387 5 0 0 0 - - -, f 5;
#X floatatom 1116 513 5 0 0 0 - - -, f 5;
#X msg 1232 351 50;
#X msg 1273 348 67;
#X msg 1130 348 19;
#X msg 1165 359 50;
#X msg 1068 354 19;
#X obj 1154 265 BEES_CKDIV;
#X obj 1147 199 tgl 15 0 empty empty empty 17 7 0 10 -262144 -1 -1
0 1;
#X obj 1088 295 print tik;
#X obj 1244 295 print tok;
#X obj 1112 456 BEES_LL ___________;
#X obj 1145 653 BEES_LIST4;
#X msg 1156 584 2;
#X msg 1190 597 3;
#X msg 1229 602 4;
#X msg 1264 602 5;
#X floatatom 1139 701 5 0 0 0 - - -, f 5;
#X msg 1089 601 0;
#X msg 1089 575 1;
#X msg 1089 551 2;
#X msg 1087 526 3;
#X msg 1083 486 4;
#X msg 1091 628 -1;
#X connect 2 0 7 0;
#X connect 2 1 8 0;
#X connect 2 2 9 0;
#X connect 3 0 23 1;
#X connect 4 0 1 1;
#X connect 5 0 2 1;
#X connect 6 0 1 3;
#X connect 10 0 14 1;
#X connect 14 0 11 0;
#X connect 14 0 38 1;
#X connect 14 0 70 2;
#X connect 14 1 12 0;
#X connect 14 1 38 2;
#X connect 14 1 71 1;
#X connect 14 2 13 0;
#X connect 14 2 38 3;
#X connect 14 2 65 2;
#X connect 15 0 2 2;
#X connect 16 0 2 2;
#X connect 17 0 23 2;
#X connect 19 0 18 1;
#X connect 20 0 18 3;
#X connect 21 0 23 2;
#X connect 21 0 31 2;
#X connect 21 0 89 3;
#X connect 22 0 21 2;
#X connect 23 0 24 0;
#X connect 23 1 25 0;
#X connect 23 2 26 0;
#X connect 23 3 27 0;
#X connect 23 4 28 0;
#X connect 23 5 29 0;
#X connect 23 6 30 0;
#X connect 31 0 34 0;
#X connect 31 1 37 0;
#X connect 31 2 35 0;
#X connect 31 3 36 0;
#X connect 32 0 31 1;
#X connect 33 0 31 2;
#X connect 38 0 39 0;
#X connect 39 0 40 0;
#X connect 41 0 14 3;
#X connect 41 1 14 4;
#X connect 42 0 14 2;
#X connect 42 1 41 2;
#X connect 43 0 58 1;
#X connect 44 0 58 1;
#X connect 45 0 58 1;
#X connect 46 0 58 1;
#X connect 47 0 58 1;
#X connect 48 0 58 1;
#X connect 49 0 58 1;
#X connect 50 0 58 1;
#X connect 51 0 54 2;
#X connect 51 1 52 2;
#X connect 51 2 56 1;
#X connect 51 3 57 2;
#X connect 52 0 42 2;
#X connect 53 0 52 1;
#X connect 54 0 56 1;
#X connect 55 0 54 1;
#X connect 56 0 42 1;
#X connect 56 1 41 1;
#X connect 57 0 42 2;
#X connect 58 0 38 4;
#X connect 58 1 51 1;
#X connect 58 2 59 1;
#X connect 58 3 62 2;
#X connect 59 0 61 1;
#X connect 59 1 14 4;
#X connect 60 0 57 1;
#X connect 61 0 14 2;
#X connect 61 1 14 3;
#X connect 62 0 59 2;
#X connect 63 0 62 1;
#X connect 64 0 60 0;
#X connect 64 0 53 0;
#X connect 64 0 63 0;
#X connect 64 0 55 0;
#X connect 64 0 72 0;
#X connect 65 0 67 0;
#X connect 65 1 68 0;
#X connect 65 2 69 0;
#X connect 66 0 65 1;
#X connect 70 0 66 0;
#X connect 71 0 70 1;
#X connect 72 0 71 2;
#X connect 73 0 21 1;
#X connect 74 0 75 0;
#X connect 74 1 76 0;
#X connect 74 2 77 0;
#X connect 78 0 84 0;
#X connect 79 0 85 0;
#X connect 80 0 86 0;
#X connect 81 0 74 1;
#X connect 82 0 74 1;
#X connect 83 0 74 1;
#X connect 84 0 74 2;
#X connect 84 1 81 0;
#X connect 85 0 74 2;
#X connect 85 1 82 0;
#X connect 86 0 74 2;
#X connect 86 1 83 0;
#X connect 87 0 74 4;
#X connect 88 0 65 4;
#X connect 89 0 92 0;
#X connect 90 0 89 1;
#X connect 91 0 89 2;
#X connect 93 0 89 3;
#X connect 94 0 113 2;
#X connect 95 0 113 3;
#X connect 96 0 113 4;
#X connect 97 0 113 4;
#X connect 98 0 113 4;
#X connect 99 0 113 4;
#X connect 102 0 117 1;
#X connect 103 0 117 2;
#X connect 104 0 117 3;
#X connect 105 0 117 4;
#X connect 106 0 117 5;
#X connect 108 0 117 4;
#X connect 109 0 117 5;
#X connect 110 0 117 2;
#X connect 111 0 117 3;
#X connect 112 0 117 1;
#X connect 113 0 100 0;
#X connect 113 0 115 0;
#X connect 113 1 101 0;
#X connect 113 1 116 0;
#X connect 114 0 113 1;
#X connect 117 0 107 0;
#X connect 118 0 123 0;
#X connect 119 0 118 2;
#X connect 120 0 118 3;
#X connect 121 0 118 4;
#X connect 122 0 118 5;
#X connect 124 0 118 1;
#X connect 125 0 118 1;
#X connect 126 0 118 1;
#X connect 127 0 118 1;
#X connect 128 0 118 1;
#X connect 129 0 118 1;
