#N canvas 0 46 1364 720 10;
#X obj 37 37 bees_op;
#X obj 206 473 BEES_WW;
#X obj 277 119 BEES_MP;
#X obj 373 120 BEES_GRID;
#X msg 184 418 1;
#X msg 270 63 1;
#X msg 387 56 1;
#X msg 331 68 1;
#X floatatom 368 157 5 0 0 0 - - -, f 5;
#X floatatom 415 156 5 0 0 0 - - -, f 5;
#X floatatom 461 154 5 0 0 0 - - -, f 5;
#X msg 506 64 1;
#X floatatom 524 185 5 0 0 0 - - -, f 5;
#X floatatom 574 184 5 0 0 0 - - -, f 5;
#X floatatom 618 178 5 0 0 0 - - -, f 5;
#X obj 528 128 BEES_GRIDRAW;
#X floatatom 537 63 5 0 0 0 - - -, f 5;
#X floatatom 577 58 5 0 0 0 - - -, f 5;
#X floatatom 630 67 5 0 0 0 - - -, f 5;
#X msg 431 48 1;
#X msg 420 11 0;
#X msg 233 420 1;
#X obj 727 145 BEES_STEP;
#X msg 734 62 1;
#X msg 788 63 1;
#X obj 215 389 BEES_METRO;
#X msg 202 332 1;
#X obj 296 195 vsl 15 128 0 127 0 0 empty empty empty 0 -9 0 10 -262144
-1 -1 5400 1;
#X connect 3 0 8 0;
#X connect 3 1 9 0;
#X connect 3 2 10 0;
#X connect 4 0 1 1;
#X connect 5 0 2 1;
#X connect 6 0 3 1;
#X connect 7 0 2 3;
#X connect 11 0 15 1;
#X connect 15 0 12 0;
#X connect 15 1 13 0;
#X connect 15 2 14 0;
#X connect 16 0 15 2;
#X connect 17 0 15 3;
#X connect 18 0 15 4;
#X connect 19 0 3 2;
#X connect 20 0 3 2;
#X connect 21 0 1 2;
#X connect 23 0 22 1;
#X connect 24 0 22 3;
#X connect 25 0 1 2;
#X connect 26 0 25 1;
#X connect 27 0 25 2;
