#N canvas 0 46 1364 720 10;
#X obj 37 37 bees_op;
#X obj 306 184 BEES_Y;
#X floatatom 307 108 5 0 0 0 - - -, f 5;
#X floatatom 293 245 5 0 0 0 - - -, f 5;
#X floatatom 355 257 5 0 0 0 - - -, f 5;
#X obj 387 311 BEES_Y;
#X floatatom 387 363 5 0 0 0 - - -, f 5;
#X floatatom 467 391 5 0 0 0 - - -, f 5;
#X floatatom 455 204 5 0 0 0 - - -, f 5;
#X obj 279 362 BEES_MUL;
#X floatatom 282 421 5 0 0 0 - - -, f 5;
#X connect 1 0 3 0;
#X connect 1 1 4 0;
#X connect 2 0 1 1;
#X connect 3 0 9 1;
#X connect 4 0 5 1;
#X connect 5 0 6 0;
#X connect 5 1 7 0;
#X connect 8 0 5 1;
#X connect 8 0 9 2;
#X connect 9 0 10 0;
